<svg width="51" height="20" viewBox="0 0 51 20" fill="none" xmlns="http://www.w3.org/2000/svg">
<g opacity="0.8">
<path d="M1 6H15M3.8 10H12.2M7.3 14H8.7" stroke="#070F21" stroke-width="1.5" stroke-linecap="round" stroke-linejoin="round"/>
<path d="M21.1449 15V5.54545H26.8139V6.56108H22.2898V9.75568H26.3892V10.7713H22.2898V15H21.1449ZM28.627 15V7.90909H29.7165V15H28.627ZM29.181 6.72727C28.9687 6.72727 28.7855 6.65495 28.6317 6.5103C28.4809 6.36565 28.4055 6.19176 28.4055 5.98864C28.4055 5.78551 28.4809 5.61162 28.6317 5.46697C28.7855 5.32232 28.9687 5.25 29.181 5.25C29.3934 5.25 29.575 5.32232 29.7258 5.46697C29.8796 5.61162 29.9566 5.78551 29.9566 5.98864C29.9566 6.19176 29.8796 6.36565 29.7258 6.5103C29.575 6.65495 29.3934 6.72727 29.181 6.72727ZM32.8015 5.54545V15H31.712V5.54545H32.8015ZM37.8808 7.90909V8.83239H34.2061V7.90909H37.8808ZM35.2771 6.21023H36.3666V12.9688C36.3666 13.2765 36.4112 13.5073 36.5004 13.6612C36.5928 13.812 36.7097 13.9136 36.8513 13.9659C36.9959 14.0152 37.1483 14.0398 37.3083 14.0398C37.4284 14.0398 37.5268 14.0336 37.6038 14.0213C37.6807 14.0059 37.7423 13.9936 37.7884 13.9844L38.01 14.9631C37.9362 14.9908 37.8331 15.0185 37.7007 15.0462C37.5684 15.0769 37.4007 15.0923 37.1975 15.0923C36.8898 15.0923 36.5882 15.0262 36.2927 14.8938C36.0003 14.7615 35.7572 14.5599 35.5633 14.2891C35.3725 14.0182 35.2771 13.6766 35.2771 13.2642V6.21023ZM42.4165 15.1477C41.7332 15.1477 41.1439 14.9969 40.6483 14.6953C40.1559 14.3906 39.7758 13.9659 39.5081 13.4212C39.2434 12.8733 39.1111 12.2363 39.1111 11.5099C39.1111 10.7836 39.2434 10.1435 39.5081 9.58949C39.7758 9.03243 40.1482 8.59848 40.6253 8.28764C41.1054 7.97372 41.6655 7.81676 42.3057 7.81676C42.675 7.81676 43.0397 7.87831 43.3998 8.00142C43.7599 8.12453 44.0876 8.32457 44.3831 8.60156C44.6785 8.87547 44.914 9.23864 45.0894 9.69105C45.2648 10.1435 45.3525 10.7005 45.3525 11.3622V11.8239H39.8866V10.8821H44.2446C44.2446 10.482 44.1646 10.125 44.0045 9.81108C43.8476 9.49716 43.6229 9.24941 43.3305 9.06783C43.0412 8.88625 42.6996 8.79545 42.3057 8.79545C41.8717 8.79545 41.4962 8.90317 41.1792 9.11861C40.8653 9.33097 40.6237 9.60795 40.4545 9.94957C40.2852 10.2912 40.2006 10.6574 40.2006 11.0483V11.6761C40.2006 12.2116 40.2929 12.6656 40.4775 13.038C40.6653 13.4073 40.9253 13.6889 41.2577 13.8828C41.5901 14.0736 41.9764 14.169 42.4165 14.169C42.7027 14.169 42.9612 14.129 43.192 14.049C43.4259 13.9659 43.6275 13.8428 43.7968 13.6797C43.9661 13.5135 44.0969 13.3073 44.1892 13.0611L45.2417 13.3565C45.1309 13.7135 44.9448 14.0275 44.6831 14.2983C44.4215 14.5661 44.0984 14.7753 43.7137 14.9261C43.329 15.0739 42.8966 15.1477 42.4165 15.1477ZM47.0099 15V7.90909H48.0624V8.98011H48.1363C48.2655 8.62926 48.4994 8.34458 48.838 8.12606C49.1765 7.90755 49.5582 7.79829 49.9829 7.79829C50.0629 7.79829 50.1629 7.79983 50.2829 7.80291C50.403 7.80599 50.4938 7.81061 50.5553 7.81676V8.92472C50.5184 8.91548 50.4337 8.90163 50.3014 8.88317C50.1721 8.86162 50.0352 8.85085 49.8905 8.85085C49.5458 8.85085 49.2381 8.92318 48.9672 9.06783C48.6995 9.2094 48.4871 9.40637 48.3302 9.65874C48.1763 9.90803 48.0993 10.1927 48.0993 10.5128V15H47.0099Z" fill="#070F21"/>
</g>
</svg>
