<svg width="58" height="20" viewBox="0 0 58 20" fill="none" xmlns="http://www.w3.org/2000/svg">
<g opacity="0.8">
<g opacity="0.7" clip-path="url(#clip0_2_730)">
<path d="M12.7061 2.6665H2.38542C1.4377 2.6665 0.666672 3.43754 0.666672 4.38525V15.6144C0.666672 16.5621 1.4377 17.3332 2.38542 17.3332H13.6146C14.5623 17.3332 15.3333 16.5621 15.3333 15.6144V5.29379L12.7061 2.6665ZM5.16407 3.81234H8.57292V5.98942H9.71875V3.81234H10.8646V6.56234C10.8646 6.87824 10.6076 7.13525 10.2917 7.13525H5.73698C5.42108 7.13525 5.16407 6.87824 5.16407 6.56234V3.81234ZM12.0104 16.1873H4.01823V11.8123C4.01823 11.4964 4.27524 11.2394 4.59115 11.2394H11.4375C11.7534 11.2394 12.0104 11.4964 12.0104 11.8123V16.1873ZM14.1875 15.6144C14.1875 15.9303 13.9305 16.1873 13.6146 16.1873H13.1563V11.8123C13.1563 10.8646 12.3852 10.0936 11.4375 10.0936H4.59115C3.64343 10.0936 2.8724 10.8646 2.8724 11.8123V16.1873H2.38542C2.06952 16.1873 1.81251 15.9303 1.81251 15.6144V4.38525C1.81251 4.06935 2.06952 3.81234 2.38542 3.81234H4.01823V6.56234C4.01823 7.51006 4.78927 8.28109 5.73698 8.28109H10.2917C11.2394 8.28109 12.0104 7.51006 12.0104 6.56234V3.81234H12.2315L14.1875 5.76839V15.6144Z" fill="#070F21"/>
</g>
<path d="M21.5327 5.54545L24.3395 13.5043H24.4503L27.2571 5.54545H28.4574L24.9858 15H23.804L20.3324 5.54545H21.5327ZM29.7823 15V7.90909H30.8718V15H29.7823ZM30.3363 6.72727C30.1239 6.72727 29.9408 6.65495 29.7869 6.5103C29.6361 6.36565 29.5607 6.19176 29.5607 5.98864C29.5607 5.78551 29.6361 5.61162 29.7869 5.46697C29.9408 5.32232 30.1239 5.25 30.3363 5.25C30.5487 5.25 30.7302 5.32232 30.881 5.46697C31.0349 5.61162 31.1119 5.78551 31.1119 5.98864C31.1119 6.19176 31.0349 6.36565 30.881 6.5103C30.7302 6.65495 30.5487 6.72727 30.3363 6.72727ZM35.8403 15.1477C35.157 15.1477 34.5677 14.9969 34.0722 14.6953C33.5798 14.3906 33.1997 13.9659 32.9319 13.4212C32.6672 12.8733 32.5349 12.2363 32.5349 11.5099C32.5349 10.7836 32.6672 10.1435 32.9319 9.58949C33.1997 9.03243 33.5721 8.59848 34.0491 8.28764C34.5292 7.97372 35.0893 7.81676 35.7295 7.81676C36.0988 7.81676 36.4635 7.87831 36.8236 8.00142C37.1837 8.12453 37.5115 8.32457 37.8069 8.60156C38.1024 8.87547 38.3378 9.23864 38.5132 9.69105C38.6887 10.1435 38.7764 10.7005 38.7764 11.3622V11.8239H33.3105V10.8821H37.6684C37.6684 10.482 37.5884 10.125 37.4284 9.81108C37.2714 9.49716 37.0467 9.24941 36.7544 9.06783C36.4651 8.88625 36.1234 8.79545 35.7295 8.79545C35.2955 8.79545 34.9201 8.90317 34.6031 9.11861C34.2892 9.33097 34.0476 9.60795 33.8783 9.94957C33.709 10.2912 33.6244 10.6574 33.6244 11.0483V11.6761C33.6244 12.2116 33.7167 12.6656 33.9014 13.038C34.0891 13.4073 34.3492 13.6889 34.6816 13.8828C35.0139 14.0736 35.4002 14.169 35.8403 14.169C36.1265 14.169 36.385 14.129 36.6159 14.049C36.8498 13.9659 37.0513 13.8428 37.2206 13.6797C37.3899 13.5135 37.5207 13.3073 37.613 13.0611L38.6656 13.3565C38.5548 13.7135 38.3686 14.0275 38.107 14.2983C37.8454 14.5661 37.5222 14.7753 37.1375 14.9261C36.7528 15.0739 36.3204 15.1477 35.8403 15.1477ZM42.0402 15L39.8797 7.90909H41.0246L42.5573 13.3381H42.6311L44.1453 7.90909H45.3087L46.8044 13.3196H46.8783L48.411 7.90909H49.5558L47.3953 15H46.3243L44.7732 9.55256H44.6624L43.1112 15H42.0402ZM56.0189 9.49716L55.0402 9.77415C54.9787 9.61103 54.8879 9.45253 54.7678 9.29865C54.6509 9.14169 54.4909 9.01243 54.2877 8.91087C54.0846 8.8093 53.8245 8.75852 53.5075 8.75852C53.0736 8.75852 52.712 8.85855 52.4227 9.05859C52.1365 9.25556 51.9933 9.50639 51.9933 9.81108C51.9933 10.0819 52.0918 10.2958 52.2888 10.4528C52.4858 10.6097 52.7935 10.7405 53.2121 10.8452L54.2646 11.1037C54.8986 11.2576 55.3711 11.493 55.6819 11.81C55.9927 12.1239 56.1482 12.5286 56.1482 13.0241C56.1482 13.4304 56.0312 13.7936 55.7973 14.1136C55.5665 14.4337 55.2433 14.6861 54.8279 14.8707C54.4124 15.0554 53.9292 15.1477 53.3783 15.1477C52.655 15.1477 52.0564 14.9908 51.5825 14.6768C51.1085 14.3629 50.8084 13.9044 50.6823 13.3011L51.7164 13.0426C51.8148 13.4242 52.001 13.7105 52.2749 13.9013C52.5519 14.0921 52.9136 14.1875 53.3598 14.1875C53.8676 14.1875 54.2708 14.0798 54.5693 13.8643C54.8709 13.6458 55.0218 13.3842 55.0218 13.0795C55.0218 12.8333 54.9356 12.6271 54.7632 12.4609C54.5909 12.2917 54.3262 12.1655 53.9692 12.0824L52.7874 11.8054C52.138 11.6515 51.661 11.413 51.3563 11.0898C51.0547 10.7636 50.9039 10.3558 50.9039 9.86648C50.9039 9.46638 51.0162 9.11245 51.2409 8.80469C51.4686 8.49692 51.7779 8.25533 52.1688 8.0799C52.5627 7.90447 53.009 7.81676 53.5075 7.81676C54.2093 7.81676 54.7602 7.97064 55.1602 8.27841C55.5634 8.58617 55.8496 8.99242 56.0189 9.49716Z" fill="#070F21"/>
</g>
<defs>
<clipPath id="clip0_2_730">
<rect width="16" height="16" fill="white" transform="translate(0 2)"/>
</clipPath>
</defs>
</svg>
