<svg width="127" height="14" viewBox="0 0 127 14" fill="none" xmlns="http://www.w3.org/2000/svg">
<g opacity="0.6">
<path d="M9.91667 5.8335H1.75" stroke="#070F21" stroke-linecap="round" stroke-linejoin="round"/>
<path d="M12.25 3.5H1.75" stroke="#070F21" stroke-linecap="round" stroke-linejoin="round"/>
<path d="M12.25 8.1665H1.75" stroke="#070F21" stroke-linecap="round" stroke-linejoin="round"/>
<path d="M9.91667 10.5H1.75" stroke="#070F21" stroke-linecap="round" stroke-linejoin="round"/>
</g>
<g opacity="0.6">
<path d="M26.0833 4.0835H31.9167" stroke="#070F21" stroke-linecap="round" stroke-linejoin="round"/>
<path d="M26.0833 6.4165H28.4167" stroke="#070F21" stroke-linecap="round" stroke-linejoin="round"/>
<path d="M23.75 2.91667V12.1292C23.75 12.187 23.7671 12.2434 23.7992 12.2913C23.8313 12.3393 23.8769 12.3767 23.9302 12.3987C23.9836 12.4208 24.0423 12.4265 24.0989 12.4152C24.1554 12.4039 24.2074 12.376 24.2482 12.3352L26.4957 10.0876C26.6051 9.97818 26.7535 9.9167 26.9082 9.91667H33.0833C33.3928 9.91667 33.6895 9.79375 33.9083 9.57496C34.1271 9.35616 34.25 9.05942 34.25 8.75V2.91667C34.25 2.60725 34.1271 2.3105 33.9083 2.09171C33.6895 1.87292 33.3928 1.75 33.0833 1.75H24.9167C24.6072 1.75 24.3105 1.87292 24.0917 2.09171C23.8729 2.3105 23.75 2.60725 23.75 2.91667V2.91667Z" stroke="#070F21" stroke-linecap="round" stroke-linejoin="round"/>
</g>
<path opacity="0.6" d="M43.4588 2.72727V10H42.358V3.82812H42.3153L40.5753 4.96449V3.91335L42.3899 2.72727H43.4588ZM45.4261 10V9.20455L47.8871 6.65483C48.1499 6.37784 48.3665 6.13518 48.5369 5.92685C48.7098 5.71615 48.8388 5.5161 48.924 5.3267C49.0092 5.13731 49.0518 4.93608 49.0518 4.72301C49.0518 4.48153 48.995 4.2732 48.8814 4.09801C48.7678 3.92045 48.6127 3.78433 48.4162 3.68963C48.2197 3.59257 47.9983 3.54403 47.7521 3.54403C47.4917 3.54403 47.2644 3.5973 47.0703 3.70384C46.8762 3.81037 46.727 3.9607 46.6229 4.15483C46.5187 4.34896 46.4666 4.57623 46.4666 4.83665H45.419C45.419 4.39394 45.5208 4.00687 45.7244 3.67543C45.928 3.34399 46.2074 3.08712 46.5625 2.90483C46.9176 2.72017 47.3213 2.62784 47.7734 2.62784C48.2304 2.62784 48.6328 2.71899 48.9808 2.90128C49.3312 3.0812 49.6046 3.32741 49.8011 3.63991C49.9976 3.95005 50.0959 4.30043 50.0959 4.69105C50.0959 4.96094 50.045 5.22491 49.9432 5.48295C49.8438 5.741 49.6697 6.02865 49.4212 6.34588C49.1726 6.66075 48.8269 7.04309 48.3842 7.4929L46.9389 9.00568V9.05895H50.2131V10H45.4261Z" fill="#070F21"/>
<g opacity="0.6">
<path d="M60.4848 10.394H65.3106" stroke="#070F21" stroke-linecap="round" stroke-linejoin="round"/>
<path d="M71.5151 8.32568L68.7576 11.0833L67.3788 9.70447" stroke="#070F21" stroke-width="1.18182" stroke-linecap="round" stroke-linejoin="round"/>
<path d="M60.4848 6.94678H68.0682" stroke="#070F21" stroke-linecap="round" stroke-linejoin="round"/>
<path d="M60.4848 3.5H68.0682" stroke="#070F21" stroke-linecap="round" stroke-linejoin="round"/>
</g>
<path opacity="0.6" d="M80.157 11.0994C79.648 11.0994 79.1982 11.0118 78.8075 10.8366C78.4193 10.6615 78.1151 10.42 77.8949 10.1122C77.6747 9.80445 77.5658 9.45407 77.5682 9.06108C77.5658 8.75331 77.6286 8.47041 77.7564 8.21236C77.8866 7.95194 78.063 7.73532 78.2855 7.5625C78.508 7.38731 78.7566 7.27604 79.0312 7.22869V7.18608C78.669 7.09848 78.379 6.90436 78.1612 6.60369C77.9434 6.30303 77.8357 5.95739 77.8381 5.56676C77.8357 5.19508 77.9339 4.86364 78.1328 4.57244C78.334 4.27888 78.6098 4.04806 78.9602 3.87997C79.3106 3.71188 79.7095 3.62784 80.157 3.62784C80.5997 3.62784 80.995 3.71307 81.343 3.88352C81.6934 4.05161 81.9692 4.28243 82.1705 4.57599C82.3717 4.86719 82.4735 5.19744 82.4759 5.56676C82.4735 5.95739 82.3622 6.30303 82.142 6.60369C81.9219 6.90436 81.6354 7.09848 81.2827 7.18608V7.22869C81.5549 7.27604 81.8 7.38731 82.0178 7.5625C82.2379 7.73532 82.4131 7.95194 82.5433 8.21236C82.6759 8.47041 82.7434 8.75331 82.7457 9.06108C82.7434 9.45407 82.6321 9.80445 82.4119 10.1122C82.1918 10.42 81.8864 10.6615 81.4957 10.8366C81.1075 11.0118 80.6612 11.0994 80.157 11.0994ZM80.157 10.201C80.4576 10.201 80.718 10.1513 80.9382 10.0518C81.1584 9.95005 81.3288 9.80919 81.4496 9.62926C81.5703 9.44697 81.6319 9.2339 81.6342 8.99006C81.6319 8.73674 81.5656 8.51302 81.4354 8.31889C81.3075 8.12476 81.1335 7.97206 80.9134 7.8608C80.6932 7.74953 80.4411 7.69389 80.157 7.69389C79.8705 7.69389 79.616 7.74953 79.3935 7.8608C79.1709 7.97206 78.9957 8.12476 78.8679 8.31889C78.7401 8.51302 78.6773 8.73674 78.6797 8.99006C78.6773 9.2339 78.7353 9.44697 78.8537 9.62926C78.9744 9.80919 79.1461 9.95005 79.3686 10.0518C79.5911 10.1513 79.8539 10.201 80.157 10.201ZM80.157 6.81676C80.3984 6.81676 80.6127 6.76823 80.7997 6.67116C80.9867 6.5741 81.1335 6.43916 81.2401 6.26634C81.349 6.09351 81.4046 5.8911 81.407 5.65909C81.4046 5.43182 81.3501 5.23295 81.2436 5.0625C81.1394 4.89205 80.9938 4.76065 80.8068 4.66832C80.6198 4.57363 80.4032 4.52628 80.157 4.52628C79.906 4.52628 79.6858 4.57363 79.4964 4.66832C79.3094 4.76065 79.1638 4.89205 79.0597 5.0625C78.9555 5.23295 78.9046 5.43182 78.907 5.65909C78.9046 5.8911 78.9567 6.09351 79.0632 6.26634C79.1697 6.43916 79.3165 6.5741 79.5036 6.67116C79.6929 6.76823 79.9107 6.81676 80.157 6.81676ZM86.802 3.38636L84.4583 12.0938H83.5101L85.8539 3.38636H86.802ZM90.1081 3.62784C90.4325 3.63021 90.7521 3.68939 91.0669 3.8054C91.3818 3.9214 91.6659 4.1108 91.9192 4.37358C92.1749 4.63636 92.3785 4.99148 92.53 5.43892C92.6839 5.884 92.762 6.43797 92.7644 7.10085C92.7644 7.73769 92.7005 8.30469 92.5726 8.80185C92.4448 9.29664 92.2613 9.71449 92.0222 10.0554C91.7855 10.3963 91.4978 10.6555 91.1593 10.8331C90.8207 11.0107 90.4396 11.0994 90.0158 11.0994C89.5826 11.0994 89.1979 11.0142 88.8617 10.8438C88.5255 10.6733 88.2521 10.4377 88.0414 10.1371C87.8307 9.83404 87.6993 9.48603 87.6472 9.09304H88.7303C88.8013 9.40554 88.9457 9.65885 89.1635 9.85298C89.3837 10.0447 89.6678 10.1406 90.0158 10.1406C90.5485 10.1406 90.964 9.90862 91.2623 9.4446C91.5605 8.97822 91.7109 8.32718 91.7132 7.49148H91.6564C91.5333 7.69508 91.3794 7.87027 91.1948 8.01705C91.0125 8.16383 90.8077 8.27746 90.5804 8.35795C90.3532 8.43845 90.1105 8.47869 89.8525 8.47869C89.4334 8.47869 89.0523 8.37571 88.709 8.16974C88.3657 7.96378 88.0923 7.68087 87.8887 7.32102C87.6851 6.96117 87.5833 6.55043 87.5833 6.08878C87.5833 5.6295 87.6874 5.21283 87.8958 4.83878C88.1065 4.46473 88.4 4.1688 88.7765 3.95099C89.1552 3.73082 89.5991 3.62311 90.1081 3.62784ZM90.1117 4.55114C89.8347 4.55114 89.5849 4.61979 89.3624 4.7571C89.1422 4.89205 88.9682 5.07552 88.8404 5.30753C88.7125 5.53717 88.6486 5.79285 88.6486 6.07457C88.6486 6.3563 88.7102 6.61198 88.8333 6.84162C88.9587 7.06889 89.1292 7.25 89.3446 7.38494C89.5624 7.51752 89.811 7.58381 90.0904 7.58381C90.2987 7.58381 90.4928 7.54356 90.6728 7.46307C90.8527 7.38258 91.0101 7.27131 91.1451 7.12926C91.28 6.98485 91.3854 6.8215 91.4611 6.6392C91.5369 6.45691 91.5748 6.26515 91.5748 6.06392C91.5748 5.7964 91.5108 5.54782 91.383 5.31818C91.2575 5.08854 91.0847 4.90388 90.8645 4.7642C90.6444 4.62216 90.3934 4.55114 90.1117 4.55114Z" fill="#070F21"/>
<g opacity="0.6">
<path fill-rule="evenodd" clip-rule="evenodd" d="M106.316 3.7334H106.26C105.772 3.73333 105.46 3.73328 105.19 3.78473C104.089 3.99509 103.212 4.82589 102.988 5.90839C102.933 6.17239 102.933 6.47738 102.933 6.94116L102.933 7.00007L102.933 7.05898C102.933 7.52277 102.933 7.82775 102.988 8.09175C103.212 9.17426 104.089 10.005 105.19 10.2154C105.46 10.2668 105.772 10.2668 106.26 10.2667H106.316H107.133C107.391 10.2667 107.6 10.0578 107.6 9.80006C107.6 9.54237 107.391 9.3334 107.133 9.3334H106.316C105.753 9.3334 105.536 9.33131 105.365 9.29865C104.616 9.1555 104.045 8.59707 103.902 7.90239C103.869 7.74466 103.866 7.54374 103.866 7.00007C103.866 6.45641 103.869 6.25549 103.902 6.09775C104.045 5.40308 104.616 4.84464 105.365 4.70149C105.536 4.66883 105.753 4.66674 106.316 4.66674H107.133C107.391 4.66674 107.6 4.4578 107.6 4.20007C107.6 3.94234 107.391 3.7334 107.133 3.7334H106.316ZM111.683 4.66674C112.247 4.66674 112.463 4.66883 112.634 4.70149C113.384 4.84464 113.954 5.40308 114.098 6.09775C114.131 6.25549 114.133 6.45641 114.133 7.00007C114.133 7.54374 114.131 7.74466 114.098 7.90239C113.954 8.59707 113.384 9.1555 112.634 9.29865C112.463 9.33131 112.247 9.3334 111.683 9.3334H110.866C110.609 9.3334 110.4 9.54237 110.4 9.80006C110.4 10.0578 110.609 10.2667 110.866 10.2667H111.683H111.74C112.228 10.2668 112.54 10.2668 112.809 10.2154C113.911 10.005 114.788 9.17426 115.012 8.09175C115.067 7.82775 115.066 7.52277 115.066 7.05899V7.00007V6.94115C115.066 6.47738 115.067 6.17239 115.012 5.90839C114.788 4.82589 113.911 3.99509 112.809 3.78473C112.54 3.73328 112.228 3.73333 111.74 3.7334H111.683H110.866C110.609 3.7334 110.4 3.94234 110.4 4.20007C110.4 4.4578 110.609 4.66674 110.866 4.66674H111.683ZM106.667 6.53339C106.409 6.53339 106.2 6.74233 106.2 7.00006C106.2 7.25779 106.409 7.46673 106.667 7.46673H111.334C111.591 7.46673 111.8 7.25779 111.8 7.00006C111.8 6.74233 111.591 6.53339 111.334 6.53339H106.667Z" fill="#070F21"/>
</g>
<path opacity="0.6" d="M120.7 11V10.2045L123.161 7.65483C123.423 7.37784 123.64 7.13518 123.81 6.92685C123.983 6.71615 124.112 6.5161 124.197 6.3267C124.283 6.13731 124.325 5.93608 124.325 5.72301C124.325 5.48153 124.268 5.2732 124.155 5.09801C124.041 4.92045 123.886 4.78433 123.69 4.68963C123.493 4.59257 123.272 4.54403 123.026 4.54403C122.765 4.54403 122.538 4.5973 122.344 4.70384C122.15 4.81037 122 4.9607 121.896 5.15483C121.792 5.34896 121.74 5.57623 121.74 5.83665H120.692C120.692 5.39394 120.794 5.00687 120.998 4.67543C121.201 4.34399 121.481 4.08712 121.836 3.90483C122.191 3.72017 122.595 3.62784 123.047 3.62784C123.504 3.62784 123.906 3.71899 124.254 3.90128C124.605 4.0812 124.878 4.32741 125.075 4.63991C125.271 4.95005 125.369 5.30043 125.369 5.69105C125.369 5.96094 125.318 6.22491 125.217 6.48295C125.117 6.741 124.943 7.02865 124.695 7.34588C124.446 7.66075 124.1 8.04309 123.658 8.4929L122.212 10.0057V10.0589H125.487V11H120.7Z" fill="#070F21"/>
</svg>
