<svg width="65" height="20" viewBox="0 0 65 20" fill="none" xmlns="http://www.w3.org/2000/svg">
<g opacity="0.8">
<path d="M3.83446 13.6299L4.88883 12.5733L4.88889 12.5732C4.99171 12.4705 5.13111 12.4129 5.27643 12.413C5.42174 12.413 5.56108 12.4708 5.66377 12.5737C5.76647 12.6765 5.82411 12.8159 5.82403 12.9612C5.82394 13.1065 5.76613 13.2459 5.66332 13.3485M3.83446 13.6299L5.62798 13.3132M3.83446 13.6299V5.00321C3.83446 4.85805 3.77679 4.71882 3.67414 4.61618C3.57149 4.51353 3.43227 4.45586 3.2871 4.45586C3.14193 4.45586 3.00271 4.51353 2.90006 4.61618C2.79741 4.71882 2.73975 4.85805 2.73975 5.00321V13.6292L1.68535 12.5741L1.68533 12.5741C1.63443 12.5232 1.57399 12.4828 1.50748 12.4552C1.44097 12.4277 1.36968 12.4135 1.29769 12.4135C1.22569 12.4135 1.1544 12.4277 1.08789 12.4552C1.02138 12.4828 0.960944 12.5232 0.910038 12.5741C0.859131 12.625 0.81875 12.6854 0.791199 12.7519C0.763649 12.8184 0.749469 12.8897 0.749469 12.9617C0.749469 13.0337 0.763649 13.105 0.791199 13.1715C0.81875 13.238 0.859131 13.2984 0.910038 13.3494L0.910053 13.3494L2.89947 15.3371L2.89941 15.3372L2.90159 15.3391L2.9082 15.345L3.83446 13.6299ZM5.66332 13.3485L5.62798 13.3132M5.66332 13.3485L5.66334 13.3485L5.62798 13.3132M5.66332 13.3485L3.6741 15.3378L3.63856 15.3026M5.62798 13.3132L3.63856 15.3026M3.63856 15.3026L3.67392 15.3379L3.67397 15.3379L3.63856 15.3026ZM7.37625 5.61088C7.2736 5.71353 7.21593 5.85275 7.21593 5.99792C7.21593 6.14309 7.2736 6.28231 7.37625 6.38496C7.4789 6.48761 7.61812 6.54528 7.76329 6.54528H14.7262C14.8714 6.54528 15.0106 6.48761 15.1133 6.38496C15.2159 6.28231 15.2736 6.14309 15.2736 5.99792C15.2736 5.85275 15.2159 5.71353 15.1133 5.61088C15.0106 5.50823 14.8714 5.45057 14.7262 5.45057H7.76329C7.61812 5.45057 7.4789 5.50823 7.37625 5.61088ZM7.76329 8.43469C7.61812 8.43469 7.4789 8.49236 7.37625 8.59501C7.2736 8.69766 7.21593 8.83688 7.21593 8.98205C7.21593 9.12721 7.2736 9.26643 7.37625 9.36908C7.4789 9.47173 7.61812 9.5294 7.76329 9.5294H12.7368C12.882 9.5294 13.0212 9.47173 13.1239 9.36908C13.2265 9.26643 13.2842 9.12721 13.2842 8.98205C13.2842 8.83688 13.2265 8.69766 13.1239 8.59501C13.0212 8.49236 12.882 8.43469 12.7368 8.43469H7.76329ZM7.76329 11.4188C7.61812 11.4188 7.4789 11.4765 7.37625 11.5791C7.2736 11.6818 7.21593 11.821 7.21593 11.9662C7.21593 12.1113 7.2736 12.2506 7.37625 12.3532C7.4789 12.4559 7.61812 12.5135 7.76329 12.5135H10.7474C10.8926 12.5135 11.0318 12.4559 11.1344 12.3532C11.2371 12.2506 11.2948 12.1113 11.2948 11.9662C11.2948 11.821 11.2371 11.6818 11.1344 11.5791C11.0318 11.4765 10.8926 11.4188 10.7474 11.4188H7.76329ZM7.76329 14.4029C7.69141 14.4029 7.62023 14.4171 7.55382 14.4446C7.48741 14.4721 7.42708 14.5124 7.37625 14.5633C7.32542 14.6141 7.2851 14.6744 7.2576 14.7408C7.23009 14.8072 7.21593 14.8784 7.21593 14.9503C7.21593 15.0222 7.23009 15.0933 7.2576 15.1598C7.2851 15.2262 7.32542 15.2865 7.37625 15.3373C7.42708 15.3882 7.48741 15.4285 7.55382 15.456C7.62023 15.4835 7.69141 15.4976 7.76329 15.4976H8.75799C8.82987 15.4976 8.90105 15.4835 8.96746 15.456C9.03387 15.4285 9.09421 15.3882 9.14503 15.3373C9.19586 15.2865 9.23618 15.2262 9.26368 15.1598C9.29119 15.0933 9.30535 15.0222 9.30535 14.9503C9.30535 14.8784 9.29119 14.8072 9.26368 14.7408C9.23618 14.6744 9.19586 14.6141 9.14503 14.5633C9.09421 14.5124 9.03387 14.4721 8.96746 14.4446C8.90105 14.4171 8.82987 14.4029 8.75799 14.4029H7.76329Z" fill="#070F21" stroke="#070F21" stroke-width="0.1"/>
<path d="M26.3153 7.90909C26.2599 7.44129 26.0353 7.07812 25.6413 6.8196C25.2474 6.56108 24.7642 6.43182 24.1918 6.43182C23.7732 6.43182 23.407 6.49953 23.093 6.63494C22.7822 6.77036 22.5391 6.95656 22.3636 7.19354C22.1913 7.43052 22.1051 7.69981 22.1051 8.00142C22.1051 8.25379 22.1651 8.47076 22.2852 8.65234C22.4083 8.83085 22.5652 8.98011 22.756 9.10014C22.9469 9.21709 23.1469 9.31404 23.3562 9.39098C23.5655 9.46484 23.7578 9.52486 23.9332 9.57102L24.8935 9.82955C25.1397 9.89418 25.4136 9.98343 25.7152 10.0973C26.0199 10.2112 26.3107 10.3666 26.5877 10.5636C26.8678 10.7575 27.0986 11.0067 27.2802 11.3114C27.4618 11.6161 27.5526 11.9901 27.5526 12.4332C27.5526 12.9441 27.4187 13.4058 27.1509 13.8182C26.8862 14.2306 26.4985 14.5584 25.9876 14.8015C25.4798 15.0446 24.8627 15.1662 24.1364 15.1662C23.4593 15.1662 22.873 15.0569 22.3775 14.8384C21.8851 14.6199 21.4973 14.3152 21.2141 13.9244C20.9341 13.5335 20.7756 13.0795 20.7386 12.5625H21.9205C21.9512 12.9195 22.0713 13.215 22.2805 13.4489C22.4929 13.6797 22.7607 13.852 23.0838 13.9659C23.41 14.0767 23.7609 14.1321 24.1364 14.1321C24.5734 14.1321 24.9658 14.0613 25.3136 13.9197C25.6613 13.7751 25.9368 13.575 26.1399 13.3196C26.343 13.0611 26.4446 12.7595 26.4446 12.4148C26.4446 12.1009 26.3569 11.8454 26.1815 11.6484C26.006 11.4515 25.7752 11.2914 25.489 11.1683C25.2028 11.0452 24.8935 10.9375 24.5611 10.8452L23.3977 10.5128C22.6591 10.3004 22.0743 9.99728 21.6435 9.60334C21.2126 9.2094 20.9972 8.69389 20.9972 8.05682C20.9972 7.52746 21.1403 7.06581 21.4265 6.67188C21.7158 6.27486 22.1036 5.96709 22.5898 5.74858C23.0792 5.52699 23.6255 5.41619 24.2287 5.41619C24.8381 5.41619 25.3797 5.52545 25.8537 5.74396C26.3277 5.9594 26.7031 6.25485 26.9801 6.63033C27.2602 7.0058 27.4079 7.43205 27.4233 7.90909H26.3153ZM32.1679 15.1477C31.5277 15.1477 30.9661 14.9954 30.4829 14.6907C30.0028 14.386 29.6273 13.9598 29.3564 13.4119C29.0887 12.8641 28.9548 12.224 28.9548 11.4915C28.9548 10.7528 29.0887 10.1081 29.3564 9.55717C29.6273 9.00627 30.0028 8.57848 30.4829 8.27379C30.9661 7.96911 31.5277 7.81676 32.1679 7.81676C32.808 7.81676 33.3682 7.96911 33.8483 8.27379C34.3315 8.57848 34.7069 9.00627 34.9747 9.55717C35.2455 10.1081 35.3809 10.7528 35.3809 11.4915C35.3809 12.224 35.2455 12.8641 34.9747 13.4119C34.7069 13.9598 34.3315 14.386 33.8483 14.6907C33.3682 14.9954 32.808 15.1477 32.1679 15.1477ZM32.1679 14.169C32.6541 14.169 33.0542 14.0444 33.3682 13.7951C33.6821 13.5458 33.9144 13.218 34.0653 12.8118C34.2161 12.4055 34.2915 11.9654 34.2915 11.4915C34.2915 11.0175 34.2161 10.5759 34.0653 10.1665C33.9144 9.75722 33.6821 9.42637 33.3682 9.17401C33.0542 8.92164 32.6541 8.79545 32.1679 8.79545C31.6816 8.79545 31.2815 8.92164 30.9676 9.17401C30.6537 9.42637 30.4213 9.75722 30.2705 10.1665C30.1197 10.5759 30.0443 11.0175 30.0443 11.4915C30.0443 11.9654 30.1197 12.4055 30.2705 12.8118C30.4213 13.218 30.6537 13.5458 30.9676 13.7951C31.2815 14.0444 31.6816 14.169 32.1679 14.169ZM37.044 15V7.90909H38.0966V8.98011H38.1705C38.2997 8.62926 38.5336 8.34458 38.8722 8.12606C39.2107 7.90755 39.5923 7.79829 40.017 7.79829C40.0971 7.79829 40.1971 7.79983 40.3171 7.80291C40.4371 7.80599 40.5279 7.81061 40.5895 7.81676V8.92472C40.5526 8.91548 40.4679 8.90163 40.3356 8.88317C40.2063 8.86162 40.0694 8.85085 39.9247 8.85085C39.58 8.85085 39.2723 8.92318 39.0014 9.06783C38.7337 9.2094 38.5213 9.40637 38.3643 9.65874C38.2105 9.90803 38.1335 10.1927 38.1335 10.5128V15H37.044ZM45.4091 7.90909V8.83239H41.7344V7.90909H45.4091ZM42.8054 6.21023H43.8949V12.9688C43.8949 13.2765 43.9395 13.5073 44.0288 13.6612C44.1211 13.812 44.238 13.9136 44.3796 13.9659C44.5243 14.0152 44.6766 14.0398 44.8366 14.0398C44.9567 14.0398 45.0552 14.0336 45.1321 14.0213C45.209 14.0059 45.2706 13.9936 45.3168 13.9844L45.5384 14.9631C45.4645 14.9908 45.3614 15.0185 45.229 15.0462C45.0967 15.0769 44.929 15.0923 44.7259 15.0923C44.4181 15.0923 44.1165 15.0262 43.821 14.8938C43.5286 14.7615 43.2855 14.5599 43.0916 14.2891C42.9008 14.0182 42.8054 13.6766 42.8054 13.2642V6.21023ZM50.8519 15V5.54545H51.9414V9.03551H52.0337C52.1138 8.91241 52.2246 8.75544 52.3661 8.56463C52.5108 8.37074 52.717 8.19839 52.9847 8.04759C53.2556 7.8937 53.6218 7.81676 54.0835 7.81676C54.6805 7.81676 55.2068 7.96603 55.6623 8.26456C56.1178 8.56309 56.4732 8.98627 56.7287 9.53409C56.9841 10.0819 57.1119 10.7282 57.1119 11.473C57.1119 12.224 56.9841 12.8749 56.7287 13.4258C56.4732 13.9736 56.1193 14.3983 55.6669 14.6999C55.2145 14.9985 54.6928 15.1477 54.1019 15.1477C53.6464 15.1477 53.2817 15.0723 53.0078 14.9215C52.7339 14.7676 52.5231 14.5937 52.3754 14.3999C52.2276 14.2029 52.1138 14.0398 52.0337 13.9105H51.9045V15H50.8519ZM51.9229 11.4545C51.9229 11.9901 52.0014 12.4625 52.1584 12.8718C52.3153 13.2781 52.5446 13.5966 52.8462 13.8274C53.1478 14.0552 53.5172 14.169 53.9542 14.169C54.4097 14.169 54.7898 14.049 55.0945 13.8089C55.4022 13.5658 55.633 13.2396 55.7869 12.8303C55.9439 12.4179 56.0224 11.9593 56.0224 11.4545C56.0224 10.956 55.9454 10.5066 55.7915 10.1065C55.6407 9.70336 55.4115 9.38482 55.1037 9.15092C54.799 8.91394 54.4158 8.79545 53.9542 8.79545C53.511 8.79545 53.1386 8.90779 52.837 9.13246C52.5354 9.35405 52.3076 9.66489 52.1538 10.065C51.9999 10.462 51.9229 10.9252 51.9229 11.4545ZM59.2262 17.6591C59.0415 17.6591 58.8769 17.6437 58.7322 17.6129C58.5876 17.5852 58.4876 17.5575 58.4322 17.5298L58.7092 16.5696C58.9738 16.6373 59.2077 16.6619 59.4109 16.6435C59.614 16.625 59.794 16.5342 59.951 16.3711C60.111 16.2111 60.2572 15.951 60.3896 15.5909L60.5927 15.0369L57.9705 7.90909H59.1523L61.1097 13.5597H61.1836L63.141 7.90909H64.3228L61.3129 16.0341C61.1774 16.4003 61.0097 16.7035 60.8097 16.9435C60.6096 17.1867 60.3772 17.3667 60.1126 17.4837C59.851 17.6006 59.5555 17.6591 59.2262 17.6591Z" fill="#070F21"/>
</g>
</svg>
