<svg width="14" height="11" viewBox="0 0 14 11" fill="none" xmlns="http://www.w3.org/2000/svg">
<path d="M3.41139 9.03995L4.2379 8.21163L4.23802 8.21151C4.33854 8.11111 4.47482 8.05476 4.61689 8.05484C4.75897 8.05492 4.89519 8.11144 4.99559 8.21196C5.09599 8.31248 5.15235 8.44877 5.15226 8.59084C5.15218 8.73291 5.09566 8.86913 4.99514 8.96953M3.41139 9.03995L4.92447 8.89878M3.41139 9.03995V1.62757C3.41139 1.48563 3.355 1.3495 3.25463 1.24913C3.15427 1.14877 3.01814 1.09238 2.8762 1.09238C2.73426 1.09238 2.59814 1.14877 2.49777 1.24913C2.3974 1.3495 2.34102 1.48563 2.34102 1.62757V9.03947L1.51446 8.21231L1.51443 8.21228C1.46466 8.16251 1.40558 8.12304 1.34056 8.0961C1.27554 8.06917 1.20584 8.05531 1.13546 8.05531C1.06508 8.05531 0.995391 8.06917 0.930368 8.0961C0.865345 8.12304 0.806263 8.16251 0.756497 8.21228C0.70673 8.26205 0.667253 8.32113 0.64032 8.38615C0.613386 8.45118 0.599524 8.52087 0.599524 8.59125C0.599524 8.66163 0.613386 8.73132 0.64032 8.79634C0.667253 8.86137 0.70673 8.92045 0.756497 8.97021L0.756526 8.97024L2.49727 10.7095L2.49714 10.7097L2.50151 10.7135L2.50637 10.7179L3.41139 9.03995ZM4.99514 8.96953L4.92447 8.89878M4.99514 8.96953L4.99518 8.96949L4.92447 8.89878M4.99514 8.96953L3.25479 10.7099L3.18373 10.6395M4.92447 8.89878L3.18373 10.6395M3.18373 10.6395L3.25444 10.7102L3.25451 10.7102L3.18373 10.6395ZM6.58806 10.8257L6.62633 10.7333L6.58806 10.8257C6.65299 10.8526 6.72258 10.8664 6.79286 10.8664H7.66323C7.73351 10.8664 7.80311 10.8526 7.86804 10.8257L7.82977 10.7333L7.86804 10.8257C7.93297 10.7988 7.99197 10.7594 8.04167 10.7097C8.09136 10.66 8.13078 10.601 8.15768 10.5361C8.18458 10.4711 8.19842 10.4015 8.19842 10.3313C8.19842 10.261 8.18458 10.1914 8.15768 10.1265C8.13078 10.0615 8.09136 10.0025 8.04167 9.95283C7.99197 9.90313 7.93297 9.86371 7.86804 9.83682L7.82977 9.9292L7.86804 9.83681C7.80311 9.80992 7.73351 9.79608 7.66323 9.79608H6.79286C6.72258 9.79608 6.65299 9.80992 6.58806 9.83681L6.62633 9.9292L6.58806 9.83682C6.52313 9.86371 6.46413 9.90313 6.41443 9.95283C6.36474 10.0025 6.32531 10.0615 6.29842 10.1265C6.27152 10.1914 6.25768 10.261 6.25768 10.3313C6.25768 10.4015 6.27152 10.4711 6.29842 10.5361C6.32531 10.601 6.36474 10.66 6.41443 10.7097C6.46413 10.7594 6.52313 10.7988 6.58806 10.8257ZM6.41443 2.1195C6.31407 2.21987 6.25768 2.356 6.25768 2.49794C6.25768 2.63988 6.31407 2.776 6.41443 2.87637C6.5148 2.97674 6.65092 3.03312 6.79286 3.03312H12.8855C13.0274 3.03312 13.1635 2.97674 13.2639 2.87637C13.3642 2.776 13.4206 2.63988 13.4206 2.49794C13.4206 2.356 13.3642 2.21987 13.2639 2.1195C13.1635 2.01914 13.0274 1.96275 12.8855 1.96275H6.79286C6.65092 1.96275 6.5148 2.01914 6.41443 2.1195ZM6.79286 4.57386C6.65092 4.57386 6.5148 4.63025 6.41443 4.73061C6.31407 4.83098 6.25768 4.96711 6.25768 5.10905C6.25768 5.25099 6.31407 5.38711 6.41443 5.48748C6.5148 5.58784 6.65092 5.64423 6.79286 5.64423H11.1447C11.2867 5.64423 11.4228 5.58784 11.5231 5.48748C11.6235 5.38711 11.6799 5.25099 11.6799 5.10905C11.6799 4.96711 11.6235 4.83098 11.5231 4.73061C11.4228 4.63025 11.2867 4.57386 11.1447 4.57386H6.79286ZM6.79286 7.18497C6.65092 7.18497 6.5148 7.24135 6.41443 7.34172C6.31407 7.44209 6.25768 7.57821 6.25768 7.72015C6.25768 7.86209 6.31407 7.99822 6.41443 8.09859C6.5148 8.19895 6.65092 8.25534 6.79286 8.25534H9.40397C9.54591 8.25534 9.68204 8.19895 9.78241 8.09859C9.88277 7.99822 9.93916 7.86209 9.93916 7.72015C9.93916 7.57821 9.88277 7.44209 9.7824 7.34172C9.68204 7.24135 9.54591 7.18497 9.40397 7.18497H6.79286Z" fill="#070F21" stroke="#070F21" stroke-width="0.2"/>
</svg>
